<?xml version="1.0" encoding="utf-8"?>
<!DOCTYPE svg PUBLIC "-//W3C//DTD SVG 1.1//EN" "http://www.w3.org/Graphics/SVG/1.1/DTD/svg11.dtd">
<svg version="1.1" id="Layer_1" xmlns="http://www.w3.org/2000/svg" xmlns:xlink="http://www.w3.org/1999/xlink" x="0px" y="0px"
	 viewBox="-37 -28 925 1976" enable-background="new -37 -28 925 1976" xml:space="preserve">
<g>
	<path fill="#871B08" d="M120.88,11.66c27.7-7.37,56.45-10.9,85.12-9.9c5.28,0.45,10.59,0.55,15.89,0.84
		c14.9,1.95,29.73,4.66,44.07,9.2c11.6,2.93,22.64,7.66,33.51,12.57c10.18,3.93,19.38,9.89,28.85,15.24
		c4.69,2.58,9.02,5.75,13.52,8.64c4.95,3.24,9.08,7.57,14.07,10.74c2.02,1.3,3.95,2.74,5.61,4.49c4.19,4.54,9.87,7.34,13.95,12
		c9.52,8.84,18.36,18.35,27.05,27.99c6.63,7.79,13.77,15.22,19.31,23.86c6.78,9.48,14.27,18.48,20.39,28.43
		c4.92,8.96,11.76,16.76,15.86,26.18c-4.33-0.45-9.3-0.17-12.75-3.3c-2.49-2.67-3.79-6.17-5.78-9.19
		c-9.63-15.41-20.48-30.01-31.56-44.39c-12.09-14.19-23.81-28.85-37.96-41.1c-6.85-6.53-14.29-12.4-21.61-18.4
		c-4.47-3.99-9.62-7.07-14.48-10.54c-4.97-3.43-9.9-6.96-15.23-9.82c-5.67-2.96-10.81-6.92-16.8-9.27
		c-8.21-3.35-16.28-7.03-24.42-10.55c-11.81-3.99-23.83-7.35-36.02-9.98c-11.12-1.78-22.28-3.36-33.49-4.41
		c-13.69-1.12-27.34,0.78-40.98,1.73c-22.84,2.51-45.07,8.59-67.43,13.66c-22.69,6.11-45.79,13.16-65.09,27
		c-6.44,4.22-11.73,10.27-15.02,17.23c-3.94,8.38-0.47,17.85,3.32,25.61c3.65,5.33,6.66,11.94,13.05,14.45
		c-1.18,3.98-1.95,8.09-3.59,11.92c-3.77-2.8-7.26-6.05-9.79-10.04c-5.16-6.86-10.29-14.06-12.55-22.47
		c-1.99-6.74-1.99-14.09,0.11-20.8c1.83-6.47,6.23-11.77,10.47-16.82c9.17-8.36,19.79-15.23,31.33-19.84
		c7.69-4.43,16.23-6.93,24.74-9.25C91.04,18.49,105.76,14.13,120.88,11.66z"/>
	<path fill="#B70709" d="M167,12.72c13.64-0.95,27.29-2.85,40.98-1.73c11.21,1.05,22.37,2.63,33.49,4.41
		c12.19,2.63,24.21,5.99,36.02,9.98c8.14,3.52,16.21,7.2,24.42,10.55c5.99,2.35,11.13,6.31,16.8,9.27
		c5.33,2.86,10.26,6.39,15.23,9.82c4.86,3.47,10.01,6.55,14.48,10.54c7.32,6,14.76,11.87,21.61,18.4
		c14.15,12.25,25.87,26.91,37.96,41.1c11.08,14.38,21.93,28.98,31.56,44.39c1.99,3.02,3.29,6.52,5.78,9.19
		c3.45,3.13,8.42,2.85,12.75,3.3c5.33,0.88,10.13,3.68,14.81,6.25c8.35,5.3,17.02,10.11,25.1,15.83
		c8.19,5.45,15.99,11.47,24.26,16.81c19.01,13.79,37.02,28.87,55.23,43.67c1.75,1.59,3.29,3.39,4.98,5.06
		c3.33,3.41,7.75,5.48,11.11,8.86c6.57,6.44,13.19,12.83,20.12,18.89c20.99,20.31,41.49,41.18,60.5,63.36
		c3.3,5.27,7.38,9.96,11.77,14.35c8.3,11.06,17.12,21.76,24.72,33.34c2.63,3.95,5.72,7.59,8.35,11.56
		c5.96,10.26,12.79,19.99,18.47,30.43c7.12,13.35,14,26.84,20.29,40.61c4.55,12.04,9.5,23.97,13.05,36.36
		c1.28,5.69,4.24,10.89,4.72,16.78c6.95,31.29,11.81,63.03,15.76,94.83c5.17,37.16,6.95,74.67,10.2,112.02
		c0.54,25.03,3.53,49.98,2.97,75.04c0.27-4.69,0.4-9.39,1.08-14.04c-0.42,16.31,0.77,32.59,1.85,48.85
		c0.8,17.86,2.22,35.69,3.34,53.54c0.71,5.78,1.27,11.68,0.12,17.45c-0.77,0.11-2.31,0.34-3.07,0.45c-1.44-0.25-2.85-0.59-4.25-0.88
		c-1.97-9.93-1.86-20.1-2.93-30.14c-2.82-30.5699-5.56-61.1899-10.55-91.5c-3.17-28.47-8.7-56.62-14.17-84.73
		c-3.5-18.83-8.14-37.45-13.05-55.96c-1.74-6.8701-4.74-13.34-6.48-20.22c-3.9-16.03-9.52-31.58-15.07-47.1
		c-14.22-38.95-31.95-76.73-54.38-111.65c-13.5-21.34-29.3-41.11-45.87-60.11c-7.18-6.82-14.28-13.74-21.03-21
		c-5.72-6.33-12.88-11.08-19.11-16.86c-6.28-4.71-11.85-10.32-18.4-14.67c-9.05-6.58-17.4-14.09-26.87-20.1
		c-26.54-19.36-54.77-36.64-79.05-58.93c-10.96-10.73-22.14-21.48-30.55-34.42c-8.44-12.73-15.05-26.65-19.66-41.21
		c-1.48-5.31-2.83-10.65-4.33-15.96c-0.23-2.97-0.1-7.79,4.03-7.62c4.17-0.82,4.75,4.32,5.58,7.19
		c4.33,20.92,13.3,40.83,25.95,58.03c18.16,24.52,42.98,42.87,67.62,60.36c28.74,20.01,57.78,39.75,84.32,62.67
		c7.98,6.64,15.33,14.01,23.03,20.98c23.5,23.49,44.8,49.29,62.5099,77.44c20.17,31.14,36.27,64.77,49.77,99.28
		c16.8,43.14,29.19,87.89,38.91,133.12c2.97,14.62,6.4,29.18,8.1,44.02c0.29,2.36,0.91,4.67,1.7,6.92
		c-0.65-13.29-2.25-26.51-3.05-39.78c-4.1201-59.16-10.23-118.34-22.48-176.42c-8.44-39.39-25.35-76.5-46.14-110.83
		c-36.99-60.67-85.77-113.31-138.75-160.31c-31.61-27.81-64.85-53.86-100.21-76.75c-12.02-7.14-24.07-17.2-38.95-15.98
		c-5.73-0.12-9.52,4.52-14.11,7.09c-1.68-0.14-3.29-0.68-4.91-1.07c-1.78-0.63-3.67-0.39-5.29,0.55
		c-18.44,9.28-34.87,22.07-50.11,35.9c-2.21,1.81-3.36,4.45-4.21,7.09c-3.25,2.85-6.5,5.72-9.45,8.89
		c-7.64,7.86-15.19,15.91-21.23,25.1c-2.69,3.97-5.94,7.63-7.87,12.07c-2.9,6.87-7.48,13-8.98,20.43c-0.52-0.12-1.03-0.24-1.53-0.35
		c-0.44,3.8-1.2,7.57-2.4,11.22c-0.61-0.07-1.22-0.13-1.82-0.2c-0.13,2.67-0.26,5.34-0.35,8.01c-0.51-0.9-1.01-1.81-1.51-2.71
		c-0.17,3.22-0.34,6.45-0.47,9.68c-0.5-0.85-1-1.7-1.49-2.54c-1.64,6.4-2.53,12.96-2.61,19.57c-0.45-0.91-0.9-1.81-1.34-2.71
		c-0.31,5.63-0.62,11.26-0.69,16.89c-0.41-1.7-0.83-3.39-1.24-5.08c-0.42,21.7-3.32,43.42-0.94,65.1c0.25,9.55,0.97,19.09,0.9,28.65
		c0.65-1.74,0.61-3.65,1.26-5.38c0.1,6.94,0.72,13.86,0.79,20.81c0.4-2.09,0.78-4.17,1.19-6.24c0.16,5.7,0.52,11.4,0.79,17.1
		c0.42-1.33,0.84-2.66,1.26-3.98c0.18,5.33,0.49,10.65,0.71,15.98c0.43-1.33,0.86-2.66,1.29-3.98c0.25,4.61,0.51,9.22,0.65,13.84
		c0.47-0.91,0.94-1.81,1.41-2.71c0.16,3.92,0.37,7.84,0.56,11.76c0.49-0.94,0.98-1.87,1.47-2.8c0.16,3.92,0.37,7.84,0.56,11.76
		c0.48-0.91,0.96-1.82,1.45-2.72c0.14,3.58,0.33,7.15,0.51,10.74c0.5-0.92,1-1.84,1.5-2.75c0.18,3.91,0.37,7.82,0.52,11.73
		c0.48-0.92,0.98-1.83,1.48-2.73c0.16,3.23,0.34,6.47,0.5,9.71c0.49-0.9,0.98-1.81,1.48-2.7c0.17,3.24,0.36,6.48,0.53,9.73
		c0.49-0.92,0.99-1.83,1.49-2.73c0.1,3.08,0.24,6.16,0.38,9.25c0.58-0.27,1.16-0.53,1.75-0.78c0.07,2.6,0.17,5.2,0.25,7.81
		c0.57-0.29,1.15-0.57,1.74-0.85c0.07,2.61,0.19,5.23,0.27,7.85c0.51-0.27,1.03-0.54,1.55-0.79c0.54,4.61,1.49,9.17,2.67,13.66
		c0.5-0.23,1-0.46,1.51-0.69c0.03,2.28,0.22,4.55,0.25,6.84c0.53-0.29,1.06-0.57,1.59-0.84c0.24,3.3,0.28,6.83,2.18,9.7
		c1.79,2.69,2.12,5.96,2.44,9.11c0.42-0.28,0.85-0.55,1.29-0.81c0.59,4.3,1.81,8.48,2.82,12.71c0.42-0.23,0.83-0.45,1.25-0.66
		c0.49,3.62,1.13,7.25,2.48,10.66c2.44,1.67,3.19,4.69,4.13,7.33c1.07,3.14,1.58,6.44,2.02,9.73c0.51-0.27,1.03-0.54,1.55-0.79
		c0.08,1.94,0.16,3.89,0.24,5.85c0.58-0.29,1.17-0.58,1.76-0.85c0.07,1.94,0.15,3.89,0.24,5.84c0.59-0.29,1.18-0.57,1.78-0.84
		c0.01,2.28,0.19,4.57,0.21,6.87c0.59-0.31,1.18-0.61,1.77-0.89c0.09,1.87,0.16,3.75,0.25,5.64c0.6-0.1,1.19-0.2,1.79-0.28
		c1.06,3.4,1.87,6.87,2.4,10.4c0.52-0.25,1.04-0.48,1.57-0.71c0.07,1.91,0.14,3.84,0.23,5.77c0.52-0.24,1.06-0.47,1.59-0.69
		c0.53,3.51,1.34,6.97,2.39,10.37c0.59-0.09,1.19-0.17,1.79-0.24c0.08,1.79,0.18,3.58,0.27,5.38c0.57-0.11,1.15-0.21,1.74-0.3
		c2.4,7.81,5.62,15.35,9.13,22.73c0.98,2.35,1.53,4.87,2.06,7.37c0.61,0.01,1.22,0.02,1.83,0.04c0.44,2.39,0.91,4.77,1.35,7.17
		c0.45-0.13,0.9-0.25,1.35-0.37c1.11,3.77,2.29,7.52,3.61,11.23c0.91,2.51,3.25,4.16,4.02,6.77c1.6,4.3799,3.13,8.79,4.91,13.11
		c0.44,0.03,0.89,0.06,1.35,0.11c1.4,4.44,4,8.42,4.91,13.04c0.39-0.08,0.8-0.15,1.21-0.21c0.58,2.8,1.26,5.66,2.91,8.06
		c2.9,4.29,4.23,9.36,6.38,14.03c1.71,4.06,4.26,7.73,5.62,11.95c0.47,0.02,0.95,0.06,1.44,0.11c2.23,7.79,6.54,14.68,9.9,21.98
		c1.98,5.21,5.09,9.87,7.31,14.97c2.96,6.69,7.42,12.6,10.38,19.3c2.46,5.7,6.04,10.83,8.46,16.55c2.15,4.8199,4.01,9.83,6.98,14.23
		c1.66,2.37,2.66,5.11,3.45,7.88c0.36,0.06,0.73,0.12,1.11,0.2c2.35,6.0099,6.59,11.03,9.1,16.98c2.35,5.57,5.04,10.99,8.14,16.19
		c4.05,6.73,6.65,14.26,11.27,20.65c4.8,6.55,7.39,14.35,11.51,21.3c2.74,4.67,4.22,10.03,7.61,14.34
		c4.22,5.42,6.4,12.05,10.25,17.71c4.18,7.54,7.99,15.29,12.73,22.5099c2.79,5.54,5,11.4301,8.96,16.3101
		c3.15,3.76,4.31,8.65,6.89,12.73c3.98,3.9401,5.5,9.52,8.36,14.23c3.92,7.23,7.71,14.55,12.3,21.39
		c3.69,6.62,7.17,13.35,11.32,19.71c3.95,6.24,7.13,12.9301,10.56,19.4601c1.72,3.3199,4.43,5.98,6.32,9.2
		c3.43,7.04,7.36,13.83,11.67,20.37c1.96,3.3,2.91,7.12,5.15,10.27c6.51,8.35,11.1,17.99,16.56,27.03
		c3.11,5.6699,6.57,11.15,9.52,16.9099c2.8,5.3301,6.62,10.0601,9.25,15.4901c3.14,6.5499,7.74,12.2899,10.8199,18.88
		c2.29,5.0099,4.9,9.9099,6.36,15.2599c0.46-0.0499,0.93-0.09,1.4-0.11c0.97,3.0901,1.94,6.1801,2.79,9.3101
		c0.39-0.22,0.79-0.42,1.19-0.6c0.5099,6.4199,5.15,11.64,4.8199,18.23c0.41-0.97,0.85-1.92,1.33-2.84
		c0.09,2.4399,0.28,4.8899,0.39,7.35c0.57-0.3,1.16-0.5801,1.75-0.8401c0.02,2.27,0.2,4.55,0.23,6.8501
		c0.57-0.29,1.16-0.5701,1.75-0.8401c0.13,2.76,0.27,5.53,0.39,8.3101c0.5-0.9401,1-1.87,1.52-2.78c0.1,2.75,0.23,5.52,0.36,8.29
		c0.5-0.26,1.01-0.5,1.52-0.73c1.58,10.85,6.71,21.0499,6.67,32.14c0.46-0.9,0.94-1.8,1.42-2.67c0.15,3.09,0.3,6.1799,0.43,9.29
		c0.55-0.3101,1.11-0.5901,1.67-0.8601c0.14,3.41,0.3,6.8301,0.42,10.26c0.44-0.87,0.9-1.72,1.36-2.5599
		c1.43,6.4399,2.58,12.97,2.72,19.59c0.45-0.9299,0.91-1.84,1.3799-2.74c0.2,4.23,0.41,8.47,0.54,12.71
		c0.49-0.9099,0.99-1.8199,1.5-2.7c0.15,3.42,0.31,6.85,0.43,10.29c0.54-0.3,1.08-0.5701,1.64-0.8301
		c0.1,3.26,0.22,6.54,0.33,9.8201c0.54-0.29,1.09-0.55,1.65-0.8c0.15,3.79,0.34,7.58,0.54,11.39c0.4301-1.35,0.87-2.67,1.32-3.98
		c0.12,4.27,0.37,8.5499,0.61,12.83c0.47-0.9199,0.96-1.8199,1.45-2.71c0.21,4.23,0.44,8.47,0.55,12.71
		c0.47-0.9199,0.95-1.83,1.4399-2.71c0.2,3.61,0.4301,7.23,0.64,10.86c0.43-1.34,0.87-2.67,1.31-3.98
		c0.17,4.28,0.41,8.5699,0.6,12.86c0.48-0.9401,0.97-1.86,1.46-2.76c0.13,3.42,0.29,6.85,0.44,10.29
		c0.55-0.3,1.1-0.5701,1.66-0.8301c0.13,3.0801,0.29,6.17,0.43,9.27c0.47-0.91,0.94-1.8099,1.42-2.6899
		c0.26,4.45,0.14,9.12,2.12,13.24c2.18,4.72,3.57,9.77,4.59,14.87c0.39-0.1801,0.78-0.34,1.19-0.48c0.65,2.89,1.34,5.9299,3.51,8.13
		c3.28,3.4299,5.1,8.09,8.93,11.0199c2.59,2.3701,6.05,4.4701,6.81,8.17c7.79,61.39,16.16,122.73,23.86,184.15
		c0.84,10.12,3.13,20.04,3.93,30.17c1.65,10.84,3.04,21.73,4.24,32.6399c3.36,24.9301,7.67,49.78,9.3,74.92
		c0.07,16.52,0.88,34.03-6.84,49.2c-2.21,4.6201-6.22,8.7001-11.38,9.76c-7.62,1.26-15.65-1.38-21.24-6.6399
		c-7.08-6.5801-12.47-14.8301-16.33-23.65c-3.54-8.0701-7.21-16.15-9.33-24.74c-6.4-22.77-9.87-46.2001-14.65-69.3401
		c-2.93-13.9399-5.18-28.0499-8.83-41.8199c-3.1-0.63-6.96-0.49-8.91-3.4301c-8.91-11.88-14.55-25.73-21.02-38.98
		c-4.49-10.37-8.04-21.12-12.51-31.5c-4.61-10.5399-7.52-21.71-11.54-32.48c-3.49-10.17-7.37-20.21-10.6-30.47
		c-2.76-8.36-6.48-16.37-9.14-24.77c-2.69-8.36-6.09-16.45-9.44-24.55c-7.53-20.33-15.6801-40.4199-23.28-60.72
		c-6.35-16.9399-13.27-33.66-19.4-50.6899c-3.6899-8.55-6.12-17.5701-9.7-26.17c-4.11-10.27-6.71-21.05-10.62-31.38
		c-2.79-7.64-4.73-15.58-7.95-23.0599c-6.79-17.79-15.49-34.92-26.54-50.4501c-6.94-10.21-14.28-20.25-23.16-28.86
		c-4.6-4.41-8.2-9.78-13.14-13.84c-5.87-4.79-10.88-10.5-16.76-15.27c-8.12-6.9-14.39-15.58-22.1-22.88
		c-4.06-3.96-8.05-8-11.72-12.3201c-13.86-16.11-28.69-31.35-42.34-47.6399c-4.4-5.25-9.13-10.2301-13.38-15.6101
		c-5.15-6.5-10.95-12.46-15.92-19.1c-5.99-7.97-13.07-15.0399-18.77-23.23c-11.86-14.5499-23.35-29.39-34.48-44.51
		c-9-11.1699-16.94-23.13-25.09-34.9199c-7.43-9.7201-13.86-20.16-20.71-30.29c-5.2-7.55-9.67-15.55-14.87-23.1
		c-13.71-21.66-26.39-43.96-38.31-66.64c-15.58-29.4-29.48-59.67-41.35-90.7401c-13.25-36.7599-24.37-74.52-29.73-113.3
		c-2.01-10.04-2.32-20.3-3.58-30.45c-0.9-8.44-0.53-16.94-0.72-25.41c-0.04-10.25-0.1-20.52,0.56-30.75
		c1.35-12.94,2.85-25.88,5.27-38.67c1.5-9.29,4.3-18.28,6.62-27.38c1.71-6.66,4.55-12.98,6.28-19.63c1.53-6.13-3.28-11.2-5.68-16.38
		c-6.09-12.8-11.11-26.1-15.36-39.62c-13.43-45.06-20.93-91.75-24.23-138.6c-0.42-6.14-1.09-12.46,0.88-18.42
		c1.22-2.94,0.32-5.95-1.25-8.53c-0.56-6.34-0.1-12.72,0.14-19.06c0.54-6.98,1.03-14.2,4.28-20.54c1.08-0.01,2.17-0.07,3.25-0.19
		c6.24,1.65,12.68,2.16,18.99,3.43c9.28,2.04,18.97,2.45,28.37,1.08c10.04-2.6,18.08-9.58,25.96-15.95
		c5.35-4.28,9.45-9.83,14.16-14.75c4.26-4.71,7.18-10.45,9.58-16.28c2.36-5.6,1.37-12.18,4.72-17.41c2.4-3.9,5.32-7.47,7.34-11.6
		c3.59-7.48,7.9-14.61,10.87-22.37c10.04-23.85,13.7-50.91,7.2-76.18c-1.77-5.61-4.11-11.02-6.3-16.47
		c-3.71-9.25-9.9-17.26-16.83-24.32c-5.79-5.44-12.11-10.59-19.58-13.54C205.75,50.5,197,47.79,188,47.64
		c-6.29,0.13-12.48,1.53-18.56,3.04c-6.92,1.76-12.56,6.37-17.93,10.84c-9.91,8.21-16.55,19.57-21.81,31.15
		c-4.09,9.18-6.47,18.98-8.96,28.68c-1.64-0.11-3.65-1.22-5.03,0.16c-6.84-8.52-14.25-17.07-24.26-21.9
		c-10.7-5.18-23.09-9.38-34.95-5.86c-9.03,2.17-16.44,8.79-20.67,16.92c-6.39-2.51-9.4-9.12-13.05-14.45
		c-3.79-7.76-7.26-17.23-3.32-25.61c3.29-6.96,8.58-13.01,15.02-17.23c19.3-13.84,42.4-20.89,65.09-27
		C121.93,21.31,144.16,15.23,167,12.72z"/>
	<path d="M169.44,50.68c6.08-1.51,12.27-2.91,18.56-3.04c9,0.15,17.75,2.86,26.02,6.23c7.47,2.95,13.79,8.1,19.58,13.54
		c6.93,7.06,13.12,15.07,16.83,24.32c2.19,5.45,4.53,10.86,6.3,16.47c6.5,25.27,2.84,52.33-7.2,76.18
		c-2.97,7.76-7.28,14.89-10.87,22.37c-2.02,4.13-4.94,7.7-7.34,11.6c-3.35,5.23-2.36,11.81-4.72,17.41
		c-2.4,5.83-5.32,11.57-9.58,16.28c-4.71,4.92-8.81,10.47-14.16,14.75c-7.88,6.37-15.92,13.35-25.96,15.95
		c-9.4,1.37-19.09,0.96-28.37-1.08c-6.31-1.27-12.75-1.78-18.99-3.43c0.38-0.17,1.14-0.5,1.52-0.67c-4.76-0.6-9.62-1.11-14.01-3.19
		c-5.19-2.21-10.38-4.4-15.59-6.55c-0.24-5.82-0.26-11.71,1.23-17.39c4.59-18.56,13.66-35.53,20.49-53.29
		c3.94-9.58,7.39-19.63,7.53-30.1c0.09-6.44,0.43-13.06-1.5-19.3c-2.88-9.45-7.28-18.52-13.5-26.23c1.38-1.38,3.39-0.27,5.03-0.16
		c2.49-9.7,4.87-19.5,8.96-28.68c5.26-11.58,11.9-22.94,21.81-31.15C156.88,57.05,162.52,52.44,169.44,50.68 M153.98,71
		c-9.92,10.46-16.23,23.79-20.57,37.4c-2.18,6.58-4.39,13.33-4.25,20.34c3.87,2.56,8.16,4.45,11.78,7.38
		c4.3,3.54,9.39,5.87,13.98,8.99c6.02,3.63,11.86,7.54,17.86,11.21c3.63,2.27,6.7,5.33,10.53,7.3c6.17,3.26,10.88,8.58,16.7,12.36
		c4.06,2.53,7.02,6.31,10.34,9.68c6.37,6.76,14.12,12.6,18.37,21.06c4.01-6.03,6.8-12.74,9.93-19.24
		c5.39-10.16,8.41-21.35,11.11-32.46c1.55-10.32,2.31-20.89,0.84-31.26c-2.08-22.4-13.58-44.11-31.94-57.34
		c-8.72-5.19-18.31-9.65-28.66-9.83C176.59,55.83,163.63,62.01,153.98,71z"/>
	<path fill="#C9A581" d="M153.98,71c9.65-8.99,22.61-15.17,36.02-14.41c10.35,0.18,19.94,4.64,28.66,9.83
		c18.36,13.23,29.86,34.94,31.94,57.34c1.47,10.37,0.71,20.94-0.84,31.26c-2.7,11.11-5.72,22.3-11.11,32.46
		c-3.13,6.5-5.92,13.21-9.93,19.24c-4.25-8.46-12-14.3-18.37-21.06c-3.32-3.37-6.28-7.15-10.34-9.68
		c-5.82-3.78-10.53-9.1-16.7-12.36c-3.83-1.97-6.9-5.03-10.53-7.3c-6-3.67-11.84-7.58-17.86-11.21c-4.59-3.12-9.68-5.45-13.98-8.99
		c-3.62-2.93-7.91-4.82-11.78-7.38c-0.14-7.01,2.07-13.76,4.25-20.34C137.75,94.79,144.06,81.46,153.98,71 M190.31,67.18
		c-7.23,2.59-13.59,8.88-14.54,16.78c-0.67,6.06-0.84,13.65,4.43,17.83c10.33,9.56,25.35,11.69,38.87,10.04
		c4.34-0.33,9.38-2.57,10.56-7.15c1.81-6.08,0.2-12.8-3.27-18c-2.78-5.33-7.44-9.25-11.53-13.54c-3.12-2.23-6.57-4.04-9.94-5.86
		C200.15,66.19,195.07,66.18,190.31,67.18z"/>
	<path fill="#030202" d="M190.31,67.18c4.76-1,9.84-0.99,14.58,0.1c3.37,1.82,6.82,3.63,9.94,5.86c4.09,4.29,8.75,8.21,11.53,13.54
		c3.47,5.2,5.08,11.92,3.27,18c-1.18,4.58-6.22,6.82-10.56,7.15c-13.52,1.65-28.54-0.48-38.87-10.04
		c-5.27-4.18-5.1-11.77-4.43-17.83C176.72,76.06,183.08,69.77,190.31,67.18 M188.08,81.89c-1.26,3.83-2.72,9.08,0.93,12.07
		c8.15,6.85,19.81,7.1,29.87,5.83c0.07-6.19-4.51-10.93-8.43-15.18c-4.88-3.6-10.79-8.17-17.24-6.29
		C191.17,78.87,188.56,79.47,188.08,81.89z"/>
	<path fill="#C6A582" d="M188.08,81.89c0.48-2.42,3.09-3.02,5.13-3.57c6.45-1.88,12.36,2.69,17.24,6.29
		c3.92,4.25,8.5,8.99,8.43,15.18c-10.06,1.27-21.72,1.02-29.87-5.83C185.36,90.97,186.82,85.72,188.08,81.89 M199.3,85.17
		c-0.01,2.8-0.33,5.64,0.25,8.4c1.08,2.5,3.85,3.45,6.4,3.28c2.6-0.05,6.73,0.7,7.26-2.88c1.24-2.98-1.49-5.67-4.32-6
		C205.56,87.53,202.22,86.94,199.3,85.17z"/>
	<path fill="#050201" d="M199.3,85.17c2.92,1.77,6.26,2.36,9.59,2.8c2.83,0.33,5.56,3.02,4.32,6c-0.53,3.58-4.66,2.83-7.26,2.88
		c-2.55,0.17-5.32-0.78-6.4-3.28C198.97,90.81,199.29,87.97,199.3,85.17z"/>
	<path fill="#AC7948" d="M56.5,93.75c11.86-3.52,24.25,0.68,34.95,5.86c10.01,4.83,17.42,13.38,24.26,21.9
		c6.22,7.71,10.62,16.78,13.5,26.23c1.93,6.24,1.59,12.86,1.5,19.3c-0.14,10.47-3.59,20.52-7.53,30.1
		c-6.83,17.76-15.9,34.73-20.49,53.29c-1.49,5.68-1.47,11.57-1.23,17.39c-0.15,5.24-0.38,10.6,1.32,15.65
		c2.47,7.52,5.34,15.02,9.61,21.72c0.72-6.76,0.59-13.67,2.58-20.24c-0.43,6.36-1.52,12.71-1.37,19.1c0.15,5.8,4.67,9.95,8.27,13.97
		c1.57,2.58,2.47,5.59,1.25,8.53c-3.61,1.07-7.12-0.48-10.26-2.16c-3.05-5.77-8.31-9.81-12.92-14.27
		c-5.43-4.21-9.81-9.57-15.2-13.81c-4.45-3.53-7.91-8.12-12.41-11.58c-4.7-3.59-8.4-8.26-12.9-12.08
		c-8.25-7.09-15.44-15.29-23.48-22.61c-4.48-3.93-7.58-9.07-11.49-13.51c-7.85-9.29-14.44-19.77-18.83-31.14
		c-2.15-6.58-3.48-13.47-3.98-20.38c0.02-8.53,2.12-16.95,4.56-25.07c4.44-7.46,7.99-15.5,13.41-22.35c2.17-2.5,4.31-5.04,6.47-7.55
		c2.08-2.45,4.87-4.41,6.15-7.45c1.64-3.83,2.41-7.94,3.59-11.92C40.06,102.54,47.47,95.92,56.5,93.75 M46.26,110.28
		c-4.64,5.48-2.99,13.77-7.99,19.01c-10.12,11.31-20.16,23.41-24.98,38.05c-3.83,10.96-3.72,23.17,0.31,34.06
		c4.56,12.32,12.09,23.42,20.83,33.16c8.5,10.74,18.73,19.92,28.34,29.65c7.57,7.1,15.45,13.89,22.97,21.06
		c3.59,3.38,7.08,6.92,11.2,9.67c-3.56-12.27-6.03-25.17-4.1-37.95c2.92-23.19,14.91-43.66,22.91-65.25
		c5.16-13.01,8.14-27.51,4.81-41.36c-3.18-13.75-12.1-25.26-21.83-35.12c-8.87-8.12-20.67-13.21-32.74-13.45
		C58.64,101.62,50.72,104.1,46.26,110.28z"/>
	<path fill="#C9A581" d="M46.26,110.28c4.46-6.18,12.38-8.66,19.73-8.47c12.07,0.24,23.87,5.33,32.74,13.45
		c9.73,9.86,18.65,21.37,21.83,35.12c3.33,13.85,0.35,28.35-4.81,41.36c-8,21.59-19.99,42.06-22.91,65.25
		c-1.93,12.78,0.54,25.68,4.1,37.95c-4.12-2.75-7.61-6.29-11.2-9.67c-7.52-7.17-15.4-13.96-22.97-21.06
		c-9.61-9.73-19.84-18.91-28.34-29.65c-8.74-9.74-16.27-20.84-20.83-33.16c-4.03-10.89-4.14-23.1-0.31-34.06
		c4.82-14.64,14.86-26.74,24.98-38.05C43.27,124.05,41.62,115.76,46.26,110.28z"/>
	<path fill="#FE514A" d="M429.89,196.21c4.59-2.57,8.38-7.21,14.11-7.09c14.88-1.22,26.93,8.84,38.95,15.98
		c35.36,22.89,68.6,48.94,100.21,76.75c52.98,47,101.76,99.64,138.75,160.31c20.79,34.33,37.7,71.44,46.14,110.83
		c12.25,58.08,18.36,117.26,22.48,176.42c0.8,13.27,2.4,26.4901,3.05,39.78c-0.79-2.25-1.41-4.56-1.7-6.92
		c-1.7-14.84-5.13-29.4-8.1-44.02c-9.72-45.23-22.11-89.98-38.91-133.12c-13.5-34.51-29.6-68.14-49.77-99.28
		C677.39,457.7,656.09,431.9,632.59,408.41c-7.7-6.97-15.05-14.34-23.03-20.98c-26.54-22.92-55.58-42.66-84.32-62.67
		c-24.64-17.49-49.46-35.84-67.62-60.36c-12.65-17.2-21.62-37.11-25.95-58.03c-0.83-2.87-1.41-8.01-5.58-7.19
		c-4.13-0.17-4.26,4.65-4.03,7.62c-1.62,0.38-3.23,0.76-4.84,1.16c-5.49,0.56-9.1,5.09-13.66,7.67
		c-11.16,6.83-20.18,16.43-30.52,24.34c-1.02-0.53-2.07-0.97-3.15-1.33c-0.05-5.17,5.11-7.39,8.44-10.34
		c5.32-4.67,10.44-9.58,16.12-13.83c9.25-7.83,20.35-12.89,30.53-19.33C426.6,195.53,428.21,196.07,429.89,196.21z"/>
	<path fill="#F86237" d="M419.69,195.69c1.62-0.94,3.51-1.18,5.29-0.55c-10.18,6.44-21.28,11.5-30.53,19.33
		c-5.68,4.25-10.8,9.16-16.12,13.83c-3.33,2.95-8.49,5.17-8.44,10.34c1.08,0.36,2.13,0.8,3.15,1.33
		c10.34-7.91,19.36-17.51,30.52-24.34c4.56-2.58,8.17-7.11,13.66-7.67c-3.15,2.68-6.59,5-10.11,7.17
		c-11.03,7.41-21.18,16.05-31.04,24.93c-2.18,2.36-5.44,1.77-8.26,1.41c-0.81-0.94-1.62-1.87-2.44-2.79c0.85-2.64,2-5.28,4.21-7.09
		C384.82,217.76,401.25,204.97,419.69,195.69z"/>
	<path fill="#F4AC00" d="M417.22,207.96c1.61-0.4,3.22-0.78,4.84-1.16c1.5,5.31,2.85,10.65,4.33,15.96
		c4.61,14.56,11.22,28.48,19.66,41.21c8.41,12.94,19.59,23.69,30.55,34.42c24.28,22.29,52.51,39.57,79.05,58.93
		c9.47,6.01,17.8199,13.52,26.87,20.1c6.55,4.35,12.12,9.96,18.4,14.67c6.23,5.78,13.39,10.53,19.11,16.86
		c6.75,7.26,13.85,14.18,21.03,21c16.57,19,32.37,38.77,45.87,60.11c22.43,34.92,40.16,72.7,54.38,111.65
		c5.55,15.52,11.17,31.07,15.07,47.1c1.74,6.88,4.74,13.35,6.48,20.22c4.91,18.5099,9.55,37.1299,13.05,55.96
		c5.47,28.11,11,56.26,14.17,84.73c0.15,5.34,0.39,10.76-0.79,16.02c-3.04-6.23-4.33-13.08-6.5099-19.61
		c-8.26-25.01-17.89-49.61-29.78-73.13c-17.43-35.12-39.01-68.03-62.95-99.03c-6.88-9.35-14.87-17.8199-22.19-26.8199
		c-10.76-13.48-23.19-25.4901-34.7-38.31c-26.04-27.3-53.6-53.1-81.3799-78.61c-11.07-10.96-23.11-20.87-34.22-31.79
		c-15.05-14.28-30.32-28.34-44.89-43.12c-23.26-24.27-46.23-49.21-64.31-77.68c-14.97-22.44-26.12-47.44-32.35-73.71
		c-1.67-5.65-1.89-11.63-3.65-17.25c-0.51-1.99-2.73-2.54-4.31-3.43c-0.06-0.44-0.18-1.33-0.24-1.78c2.82,0.36,6.08,0.95,8.26-1.41
		c9.86-8.88,20.01-17.52,31.04-24.93C410.63,212.96,414.07,210.64,417.22,207.96z"/>
	<path fill="#565327" d="M355.92,247.57c2.95-3.17,6.2-6.04,9.45-8.89c0.82,0.92,1.63,1.85,2.44,2.79c0.06,0.45,0.18,1.34,0.24,1.78
		c-0.57,0.07-1.72,0.21-2.29,0.27c-2.23,0.49-5.16,0.95-5.42,3.76c-2.54,11.17-3.45,22.65-4.92,34c-0.46-6.48,0.53-12.93,0.85-19.4
		c0.85-4.44,2.04-8.83,2.46-13.35C358.03,248.29,356.62,247.81,355.92,247.57z"/>
	<path fill="#F2AC06" d="M360.34,247.28c0.26-2.81,3.19-3.27,5.42-3.76c-0.91,2.32-1.9,4.76-1.43,7.31
		c0.69,5.22,1.53,10.43,2.05,15.67c-2.65,11.66-1.58,23.66-1.8,35.5c-0.45,16.06,1.87,32.05,4.76,47.8
		c2.28,7.01,2.67,14.44,4.69,21.49c3.24,8.41,4.88,17.31,7.65,25.86c1.57,5.22,3.57,10.29,5.39,15.42
		c3.65,11.73,8.72,22.94,13.04,34.43c4.71,10.78,10.2,21.21,14.97,31.97c2.62,5.85,5.88,11.39,8.81,17.09
		c5.66,10.68,10.38,21.86,16.99,32.02c12.23,21.56,24.99,42.82,38.17,63.82c5.67,9.5099,11.33,19.08,18.12,27.86
		c8.29,12.49,15.49,25.69,24.36,37.81c4.99,6.43,8.78,13.68,13.81,20.08c4.44,5.65,8.05,11.9,12.44,17.6
		c6.22,8.27,10.96,17.54,17.15,25.83c5.92,7.26,10.22,15.65,15.89,23.1c4.82,8.03,10.91,15.16,16,23
		c13.86,18.46,24.9,38.83,38.53,57.45c4.87,6.61,8.44,14.06,13.32,20.67c6,8.19,10.91,17.1,16.41,25.63
		c7.07,11.1,14.15,22.2,20.37,33.81c15.96,24.8,29.5,51.04,43.98,76.7c13.75,28.53,28.65,56.59,39.99,86.22
		c3.32,7.99,7.32,15.6799,10.12,23.9c4.56,10.4399,7.59,21.45,12.06,31.9299c3.64,9.91,6.8,20,9.91,30.09
		c5.15,13.8401,7.37,28.53,12.14,42.4801c-0.01-13.0601-1.84-26.04-2.06-39.1001c-2.29-37.38-4.38-74.7799-6.5-112.1699
		c-1.32-18.3-1.72-36.66-3.44-54.92c1.73-0.67,3.55-1.2,5.18-2.12c1.29-1.17,1.23-3.11,1.46-4.69c0.43-13.74-0.31-27.49-0.38-41.23
		c1.28,3.58,0.5,7.45,0.8,11.17c0.86,11.55,1.41,23.14,1.6,34.72c0.48-0.48,0.98-0.95,1.49-1.4c-0.84,12.24,0.42,24.45,0.96,36.67
		c0.94,13,1.65,26.02,2.24,39.05c0.87,6.97,1.93,13.9099,1.59,20.97c1.66,10.6,0.55,21.33,1.43,31.99
		c0.73,15.41,1.99,30.78,2.64,46.2c0.86,6.8601,0.63,13.79,0.8701,20.6901c0.12,5.77,2.29,11.29,2.08,17.09
		c-0.23,12.3,1.03,24.55,1.86,36.8101c0.47,8.58,1.83,17.27,0.36,25.83c-0.81,0.26-2.44,0.78-3.25,1.03
		c-1.41-0.6801-2.87-1.24-4.13-2.13c-1.37-3.46-1.35-7.27-2.41-10.8101c-2.33-7.5399-1.99-15.63-4.79-23.0599
		c-1.91-11.77-5.36-23.1801-8.15-34.75c-1.7599-7.05-4.41-13.85-5.87-20.98c-1.32-6.3501-4.41-12.14-5.8-18.4701
		c-1.94-8.51-5.91-16.35-8.35-24.7c-3.57-9.25-5.84-18.95-9.93-27.99c-7.32-18.48-14.82-36.89-23.08-54.96
		c-3.99-8.02-7.22-16.41-11.66-24.2001c-5.2599-9.3-9.75-18.99-14.35-28.62c-2.4-5.1-5.72-9.69-8.14-14.76
		c-4.55-10.6299-10.46-20.61-16.48-30.45c-5.2-10.52-10.92-20.82-17.74-30.38c-6.6-10.22-11.31-21.61-18.85-31.22
		c-4.89-8.63-10.58-16.75-15.7599-25.2c-10.15-15.2599-19.04-31.35-29.76-46.23c-4.24-6.14-8.57-12.21-12.55-18.52
		c-4.23-6.14-7.72-12.79-12.41-18.59c-10.51-13.73-19.45-28.53-29.25-42.74c-9.22-12.84-17.42-26.38-26.92-39.02
		c-6.82-11.04-14.83-21.26-21.93-32.11c-5.66-9-11.67-17.76-17.36-26.73c-5.01-7.95-10.85-15.35-15.55-23.4901
		c-3.93-6.61-8.38-12.88-12.45-19.39c-4.7-8.46-9.95-16.59-15.4-24.57c-4.32-6.33-7.12-13.51-11.12-20.02
		c-15.61-25.08-28.45-51.72-41.82-78.02c-13.22-29.95-25.98-60.27-34.18-92.04c-2.38-10.83-5.66-21.48-7.26-32.48
		c-1.56-10.96-3.47-21.92-3.56-33.02c0-10.58,0.21-21.15-0.15-31.72C356.89,269.93,357.8,258.45,360.34,247.28z"/>
	<path fill="#FB5349" d="M365.76,243.52c0.57-0.06,1.72-0.2,2.29-0.27c1.58,0.89,3.8,1.44,4.31,3.43c1.76,5.62,1.98,11.6,3.65,17.25
		c6.23,26.27,17.38,51.27,32.35,73.71c18.08,28.47,41.05,53.41,64.31,77.68c14.57,14.78,29.84,28.84,44.89,43.12
		c11.11,10.92,23.15,20.83,34.22,31.79c27.78,25.51,55.34,51.31,81.3799,78.61c11.51,12.8199,23.94,24.83,34.7,38.31
		c7.32,9,15.31,17.47,22.19,26.8199c23.94,31,45.52,63.91,62.95,99.03c11.89,23.52,21.52,48.12,29.78,73.13
		c2.18,6.53,3.47,13.38,6.5099,19.61c1.18-5.26,0.94-10.68,0.79-16.02c4.99,30.3101,7.73,60.9301,10.55,91.5
		c1.07,10.04,0.96,20.21,2.93,30.14c1.4,0.29,2.81,0.63,4.25,0.88c-0.02,3.19,0.05,6.39,0.1,9.59c0.07,13.74,0.81,27.49,0.38,41.23
		c-0.23,1.58-0.17,3.52-1.46,4.69c-1.63,0.92-3.45,1.45-5.18,2.12c-2.45-2.7-3.57-6.19-3.33-9.81c-0.66-15.37-2.4-30.7-2.57-46.09
		c-0.04-4.7-1.71-9.23-1.44-13.95c0.24-8.04-0.38-16.05-0.58-24.07c-0.08-5.88-2.91-11.25-3.2-17.1
		c-0.42-10.44-5.03-20.21-4.91-30.73c-0.41,0.9-0.8,1.82-1.18,2.75c-0.42-7.19-2.33-14.15-4.11-21.08
		c-1.46-5.71-4.1-11.05-5.22-16.85c-1.07-5.65-3.99-10.67-5.71-16.11c-2.23-6.71-4.21-13.53-7.22-19.94
		c-7.37-19.78-16.5-38.9-26.55-57.46c-5.92-9.24-10.02-19.56-16.68-28.33c-5.76-8.87-11.31-17.89-17.7-26.33
		c-3.11-4.01-5.65-8.42-8.54-12.58c-14.14-17.47-27.57-35.55-42.65-52.25c-3.82-4.16-8.25-7.71-11.94-11.99
		c-8.17-10.13-18.65-18.13-26.77-28.31c-4.49-5.48-9.91-10.09-14.8-15.19c-9.89-10.49-21.62-19-31.67-29.33
		c-12.95-11.71-25.48-23.86-38.45-35.54c-4.54-4.47-9.56-8.42-13.95-13.04c-7.07-7.29-15.2-13.46-22.07-20.94
		c-6.37-6.96-13.26-13.41-19.86-20.15c-6.54-6.46-12.85-13.16-19.63-19.37c-2.98-2.71-5.59-5.79-8.01-8.99
		c-3.56-4.71-8.01-8.63-11.82-13.11c-25.58-31.24-48.72-65.59-60.39-104.62c-1.19-4.37-2.23-8.81-4.32-12.86
		c-0.52-5.24-1.36-10.45-2.05-15.67C363.86,248.28,364.85,245.84,365.76,243.52z"/>
	<path fill="#395F41" d="M334.69,272.67c6.04-9.19,13.59-17.24,21.23-25.1c0.7,0.24,2.11,0.72,2.81,0.96
		c-0.42,4.52-1.61,8.91-2.46,13.35c-1.94,1.51-3.82,3.12-5.42,4.98c-19.92,23.84-31.8,53.58-37.08,84
		c-8.43,49.19-2.69,99.54,7.29,148.05c8.96,42.4,21.73,83.91,36.41,124.66c6.25,16.12,11.82,32.5,18.53,48.43
		c15.64,38.98,32.74,77.35,50.7,115.31c6.75,13.35,12.75,27.06,19.62,40.36c39.64,80.1,82.59,158.52,126.88,236.1301
		c29.16,51.6499,59.2,102.7999,88.89,154.13c8.27,14.4199,17.08,28.5499,24.6,43.38c16.68,35.2,26.22,73.1799,35.07,110.95
		c4.61,20.17,9.02,40.39,13.29,60.65c4.1,18.2999,7.96,36.6799,13.4,54.65c2.25,7.4099,4.97,14.9399,10.12,20.8799
		c6.23,7.4601,16.23,10.1201,22.9,17.1101c4.32,4.23,6.1,10.33,10.39,14.6c5.86,5.8099,12.06,11.28,18.24,16.75
		c8.85,7.35,17.5,15.84,28.83,19.14c0.13-8.9601-2.43-17.62-3.47-26.4601c-6.91-47.61-10.55-95.61-14.13-143.5699
		c-3.69-50.95-6.63-101.96-9.22-152.98c-0.3-8.8-1.24-17.5801-0.86-26.38c2.8,7.4299,2.46,15.52,4.79,23.0599
		c1.06,3.54,1.04,7.3501,2.41,10.8101c1.26,0.89,2.72,1.45,4.13,2.13c-0.14,14.78,1.38,29.5,1.89,44.27
		c1.1201,18.6499,2.6201,37.2899,3.1,55.98c1.22,12.34,2.2,24.71,2.77,37.11c-0.05,6.03,1.5099,11.9399,1.39,17.99
		c0.7,11.37,1.62,22.74,2.84,34.08c1.88,27.0901,4.97,54.0701,8.23,81.02c1.18,8.8301,2.24,17.6901,3.82,26.47
		c1.01,6.88,3.17,14.13,0.78,20.9601c-2.75,5.0399-9.69,5.85-14.56,3.64c-8.03-3.37-15.75-7.91-21.84-14.2001
		c-3.54-3.53-8.24-5.63-11.55-9.4099c-6.23-5.7401-12.75-11.2301-18.36-17.6001c-2.13-3.1499-3.41-6.86-6.17-9.5499
		c-5.09-5.99-12.09-9.8101-18.9-13.4701c-3.83-2.9299-5.65-7.59-8.93-11.0199c-2.17-2.2001-2.86-5.24-3.51-8.13
		c-0.41,0.14-0.8,0.2999-1.19,0.48c-1.02-5.1-2.41-10.15-4.59-14.87c-1.98-4.12-1.86-8.79-2.12-13.24
		c-0.48,0.88-0.95,1.7799-1.42,2.6899c-0.14-3.1-0.3-6.1899-0.43-9.27c-0.56,0.26-1.11,0.53-1.66,0.8301
		c-0.15-3.4401-0.31-6.87-0.44-10.29c-0.49,0.9-0.98,1.8199-1.46,2.76c-0.19-4.29-0.43-8.58-0.6-12.86
		c-0.44,1.3099-0.88,2.64-1.31,3.98c-0.21-3.63-0.44-7.25-0.64-10.86c-0.49,0.88-0.97,1.79-1.4399,2.71
		c-0.11-4.24-0.34-8.48-0.55-12.71c-0.49,0.89-0.98,1.79-1.45,2.71c-0.2401-4.28-0.4901-8.5599-0.61-12.83
		c-0.45,1.3099-0.89,2.63-1.32,3.98c-0.2-3.8101-0.39-7.6-0.54-11.39c-0.56,0.25-1.11,0.51-1.65,0.8
		c-0.11-3.28-0.23-6.5601-0.33-9.8201c-0.56,0.26-1.1,0.53-1.64,0.8301c-0.12-3.4401-0.28-6.87-0.43-10.29
		c-0.51,0.88-1.01,1.79-1.5,2.7c-0.13-4.24-0.34-8.48-0.54-12.71c-0.47,0.9-0.93,1.8101-1.3799,2.74
		c-0.14-6.62-1.29-13.15-2.72-19.59c-0.46,0.84-0.92,1.6899-1.36,2.5599c-0.12-3.4299-0.28-6.85-0.42-10.26
		c-0.56,0.27-1.1201,0.55-1.67,0.8601c-0.13-3.1101-0.28-6.2001-0.43-9.29c-0.48,0.87-0.96,1.77-1.42,2.67
		c0.04-11.0901-5.09-21.29-6.67-32.14c-0.51,0.23-1.02,0.47-1.52,0.73c-0.13-2.77-0.26-5.54-0.36-8.29
		c-0.52,0.91-1.02,1.84-1.52,2.78c-0.12-2.78-0.26-5.55-0.39-8.3101c-0.59,0.27-1.18,0.55-1.75,0.8401
		c-0.03-2.3-0.21-4.5801-0.23-6.8501c-0.59,0.26-1.18,0.54-1.75,0.8401c-0.11-2.4601-0.3-4.91-0.39-7.35
		c-0.48,0.9199-0.92,1.87-1.33,2.84c0.33-6.59-4.31-11.8101-4.8199-18.23c-0.4,0.1799-0.8,0.38-1.19,0.6
		c-0.85-3.13-1.82-6.22-2.79-9.3101c-0.47,0.02-0.94,0.0601-1.4,0.11c-1.46-5.35-4.07-10.25-6.36-15.2599
		c-3.08-6.5901-7.68-12.3301-10.8199-18.88c-2.63-5.4301-6.45-10.16-9.25-15.4901c-2.95-5.7599-6.41-11.24-9.52-16.9099
		c-5.46-9.04-10.05-18.6801-16.56-27.03c-2.24-3.15-3.19-6.97-5.15-10.27c-4.31-6.54-8.24-13.33-11.67-20.37
		c-1.89-3.22-4.6-5.88-6.32-9.2c-3.43-6.53-6.61-13.2201-10.56-19.4601c-4.15-6.36-7.63-13.09-11.32-19.71
		c-4.59-6.84-8.38-14.16-12.3-21.39c-2.86-4.71-4.38-10.2899-8.36-14.23c-2.58-4.08-3.74-8.97-6.89-12.73
		c-3.96-4.88-6.17-10.77-8.96-16.3101c-4.74-7.22-8.55-14.97-12.73-22.5099c-3.85-5.66-6.03-12.29-10.25-17.71
		c-3.39-4.31-4.87-9.67-7.61-14.34c-4.12-6.95-6.71-14.75-11.51-21.3c-4.62-6.39-7.22-13.92-11.27-20.65
		c-3.1-5.2-5.79-10.62-8.14-16.19c-2.51-5.95-6.75-10.97-9.1-16.98c-0.38-0.08-0.75-0.14-1.11-0.2c-0.79-2.77-1.79-5.51-3.45-7.88
		c-2.97-4.4-4.83-9.41-6.98-14.23c-2.42-5.72-6-10.85-8.46-16.55c-2.96-6.7-7.42-12.61-10.38-19.3c-2.22-5.1-5.33-9.76-7.31-14.97
		c-3.36-7.3-7.67-14.19-9.9-21.98c-0.49-0.05-0.97-0.09-1.44-0.11c-1.36-4.22-3.91-7.89-5.62-11.95c-2.15-4.67-3.48-9.74-6.38-14.03
		c-1.65-2.4-2.33-5.26-2.91-8.06c-0.41,0.06-0.82,0.13-1.21,0.21c-0.91-4.62-3.51-8.6-4.91-13.04c-0.46-0.05-0.91-0.08-1.35-0.11
		c-1.78-4.32-3.31-8.73-4.91-13.11c-0.77-2.61-3.11-4.26-4.02-6.77c-1.32-3.71-2.5-7.46-3.61-11.23c-0.45,0.12-0.9,0.24-1.35,0.37
		c-0.44-2.4-0.91-4.78-1.35-7.17c-0.61-0.02-1.22-0.03-1.83-0.04c-0.53-2.5-1.08-5.02-2.06-7.37c-3.51-7.38-6.73-14.92-9.13-22.73
		c-0.59,0.09-1.17,0.19-1.74,0.3c-0.09-1.8-0.19-3.59-0.27-5.38c-0.6,0.07-1.2,0.15-1.79,0.24c-1.05-3.4-1.86-6.86-2.39-10.37
		c-0.53,0.22-1.07,0.45-1.59,0.69c-0.09-1.93-0.16-3.86-0.23-5.77c-0.53,0.23-1.05,0.46-1.57,0.71c-0.53-3.53-1.34-7-2.4-10.4
		c-0.6,0.08-1.19,0.18-1.79,0.28c-0.09-1.89-0.16-3.77-0.25-5.64c-0.59,0.28-1.18,0.58-1.77,0.89c-0.02-2.3-0.2-4.59-0.21-6.87
		c-0.6,0.27-1.19,0.55-1.78,0.84c-0.09-1.95-0.17-3.9-0.24-5.84c-0.59,0.27-1.18,0.56-1.76,0.85c-0.08-1.96-0.16-3.91-0.24-5.85
		c-0.52,0.25-1.04,0.52-1.55,0.79c-0.44-3.29-0.95-6.59-2.02-9.73c-0.94-2.64-1.69-5.66-4.13-7.33c-1.35-3.41-1.99-7.04-2.48-10.66
		c-0.42,0.21-0.83,0.43-1.25,0.66c-1.01-4.23-2.23-8.41-2.82-12.71c-0.44,0.26-0.87,0.53-1.29,0.81c-0.32-3.15-0.65-6.42-2.44-9.11
		c-1.9-2.87-1.94-6.4-2.18-9.7c-0.53,0.27-1.06,0.55-1.59,0.84c-0.03-2.29-0.22-4.56-0.25-6.84c-0.51,0.23-1.01,0.46-1.51,0.69
		c-1.18-4.49-2.13-9.05-2.67-13.66c-0.52,0.25-1.04,0.52-1.55,0.79c-0.08-2.62-0.2-5.24-0.27-7.85c-0.59,0.28-1.17,0.56-1.74,0.85
		c-0.08-2.61-0.18-5.21-0.25-7.81c-0.59,0.25-1.17,0.51-1.75,0.78c-0.14-3.09-0.28-6.17-0.38-9.25c-0.5,0.9-1,1.81-1.49,2.73
		c-0.17-3.25-0.36-6.49-0.53-9.73c-0.5,0.89-0.99,1.8-1.48,2.7c-0.16-3.2401-0.34-6.48-0.5-9.71c-0.5,0.9-1,1.81-1.48,2.73
		c-0.15-3.91-0.34-7.82-0.52-11.73c-0.5,0.91-1,1.83-1.5,2.75c-0.18-3.59-0.37-7.16-0.51-10.74c-0.49,0.9-0.97,1.81-1.45,2.72
		c-0.19-3.92-0.4-7.84-0.56-11.76c-0.49,0.93-0.98,1.86-1.47,2.8c-0.19-3.92-0.4-7.84-0.56-11.76c-0.47,0.9-0.94,1.8-1.41,2.71
		c-0.14-4.62-0.4-9.23-0.65-13.84c-0.43,1.32-0.86,2.65-1.29,3.98c-0.22-5.33-0.53-10.65-0.71-15.98c-0.42,1.32-0.84,2.65-1.26,3.98
		c-0.27-5.7-0.63-11.4-0.79-17.1c-0.41,2.07-0.79,4.15-1.19,6.24c-0.07-6.95-0.69-13.87-0.79-20.81c-0.65,1.73-0.61,3.64-1.26,5.38
		c0.07-9.56-0.65-19.1-0.9-28.65c-2.38-21.68,0.52-43.4,0.94-65.1c0.41,1.69,0.83,3.38,1.24,5.08c0.07-5.63,0.38-11.26,0.69-16.89
		c0.44,0.9,0.89,1.8,1.34,2.71c0.08-6.61,0.97-13.17,2.61-19.57c0.49,0.84,0.99,1.69,1.49,2.54c0.13-3.23,0.3-6.46,0.47-9.68
		c0.5,0.9,1,1.81,1.51,2.71c0.09-2.67,0.22-5.34,0.35-8.01c0.6,0.07,1.21,0.13,1.82,0.2c1.2-3.65,1.96-7.42,2.4-11.22
		c0.5,0.11,1.01,0.23,1.53,0.35c1.5-7.43,6.08-13.56,8.98-20.43C328.75,280.3,332,276.64,334.69,272.67z"/>
	<path fill="#0D1933" d="M350.85,266.86c1.6-1.86,3.48-3.47,5.42-4.98c-0.32,6.47-1.31,12.92-0.85,19.4
		c0.36,10.57,0.15,21.14,0.15,31.72c0.09,11.1,2,22.06,3.56,33.02c1.6,11,4.88,21.65,7.26,32.48c8.2,31.77,20.96,62.09,34.18,92.04
		c13.37,26.3,26.21,52.94,41.82,78.02c4,6.51,6.8,13.69,11.12,20.02c5.45,7.98,10.7,16.11,15.4,24.57
		c4.07,6.5099,8.52,12.78,12.45,19.39c4.7,8.14,10.54,15.54,15.55,23.4901c5.69,8.97,11.7,17.73,17.36,26.73
		c7.1,10.85,15.11,21.07,21.93,32.11c9.5,12.64,17.7,26.18,26.92,39.02c9.8,14.21,18.74,29.01,29.25,42.74
		c4.69,5.8,8.18,12.45,12.41,18.59c3.98,6.3101,8.31,12.38,12.55,18.52c10.72,14.88,19.61,30.97,29.76,46.23
		c5.18,8.45,10.87,16.57,15.7599,25.2c7.54,9.61,12.25,21,18.85,31.22c6.82,9.56,12.54,19.86,17.74,30.38
		c6.02,9.84,11.93,19.82,16.48,30.45c2.42,5.07,5.74,9.66,8.14,14.76c4.6,9.63,9.09,19.32,14.35,28.62
		c4.44,7.79,7.67,16.1801,11.66,24.2001c8.26,18.0699,15.76,36.48,23.08,54.96c4.09,9.04,6.36,18.74,9.93,27.99
		c2.44,8.35,6.41,16.1899,8.35,24.7c1.39,6.3301,4.48,12.12,5.8,18.4701c1.46,7.13,4.11,13.9299,5.87,20.98
		c2.79,11.5699,6.2401,22.98,8.15,34.75c-0.38,8.7999,0.56,17.58,0.86,26.38c2.59,51.02,5.53,102.03,9.22,152.98
		c3.58,47.96,7.22,95.96,14.13,143.5699c1.04,8.8401,3.6,17.5,3.47,26.4601c-11.33-3.3-19.98-11.79-28.83-19.14
		c-6.18-5.47-12.38-10.9401-18.24-16.75c-4.29-4.27-6.07-10.37-10.39-14.6c-6.67-6.99-16.67-9.65-22.9-17.1101
		c-5.15-5.9399-7.87-13.47-10.12-20.8799c-5.44-17.9701-9.3-36.3501-13.4-54.65c-4.27-20.26-8.68-40.48-13.29-60.65
		c-8.85-37.77-18.39-75.75-35.07-110.95c-7.52-14.8301-16.33-28.9601-24.6-43.38C632.4,1166.6,602.36,1115.45,573.2,1063.8
		c-44.29-77.61-87.24-156.03-126.88-236.1301c-6.87-13.3-12.87-27.01-19.62-40.36C408.74,749.35,391.64,710.98,376,672
		c-6.71-15.93-12.28-32.31-18.53-48.43c-14.68-40.75-27.45-82.26-36.41-124.66c-9.98-48.51-15.72-98.86-7.29-148.05
		C319.05,320.44,330.93,290.7,350.85,266.86 M353.75,297c0.16,5.09-0.38,10.29,0.82,15.3c0.71-10.17,0.62-20.41,0.02-30.57
		C353.45,286.73,353.91,291.91,353.75,297z"/>
	<path fill="#386141" d="M366.38,266.5c2.09,4.05,3.13,8.49,4.32,12.86c11.67,39.03,34.81,73.38,60.39,104.62
		c3.81,4.48,8.26,8.4,11.82,13.11c2.42,3.2,5.03,6.28,8.01,8.99c6.78,6.21,13.09,12.91,19.63,19.37
		c6.6,6.74,13.49,13.19,19.86,20.15c6.87,7.48,15,13.65,22.07,20.94c4.39,4.62,9.41,8.57,13.95,13.04
		c12.97,11.68,25.5,23.83,38.45,35.54c10.05,10.33,21.78,18.84,31.67,29.33c4.89,5.1,10.31,9.71,14.8,15.19
		c8.12,10.18,18.6,18.18,26.77,28.31c3.69,4.28,8.12,7.83,11.94,11.99c15.08,16.7,28.51,34.78,42.65,52.25
		c2.89,4.16,5.43,8.57,8.54,12.58c6.39,8.44,11.94,17.46,17.7,26.33c6.66,8.77,10.76,19.09,16.68,28.33
		c10.05,18.56,19.18,37.68,26.55,57.46c3.01,6.41,4.99,13.23,7.22,19.94c1.72,5.44,4.64,10.46,5.71,16.11
		c1.12,5.8,3.76,11.14,5.22,16.85c1.78,6.93,3.69,13.89,4.11,21.08c0.38-0.93,0.77-1.85,1.18-2.75
		c-0.12,10.52,4.49,20.29,4.91,30.73c0.29,5.85,3.12,11.22,3.2,17.1c0.2,8.02,0.82,16.03,0.58,24.07c-0.27,4.72,1.4,9.25,1.44,13.95
		c0.17,15.39,1.91,30.72,2.57,46.09c-0.24,3.62,0.88,7.11,3.33,9.81c1.72,18.26,2.12,36.62,3.44,54.92
		c2.12,37.39,4.21,74.7899,6.5,112.1699c0.22,13.0601,2.05,26.04,2.06,39.1001c-4.77-13.9501-6.9901-28.64-12.14-42.4801
		c-3.11-10.09-6.27-20.1799-9.91-30.09c-4.47-10.48-7.5-21.49-12.06-31.9299c-2.8-8.2201-6.8-15.91-10.12-23.9
		c-11.34-29.63-26.24-57.6901-39.99-86.22c-14.48-25.66-28.02-51.9-43.98-76.7c-6.22-11.61-13.3-22.71-20.37-33.81
		c-5.5-8.53-10.41-17.44-16.41-25.63c-4.88-6.61-8.45-14.06-13.32-20.67c-13.63-18.62-24.67-38.99-38.53-57.45
		c-5.09-7.84-11.18-14.97-16-23c-5.67-7.45-9.97-15.84-15.89-23.1c-6.19-8.29-10.93-17.56-17.15-25.83c-4.39-5.7-8-11.95-12.44-17.6
		c-5.03-6.4-8.82-13.65-13.81-20.08c-8.8701-12.12-16.07-25.32-24.36-37.81c-6.79-8.78-12.45-18.35-18.12-27.86
		c-13.18-21-25.94-42.26-38.17-63.82c-6.61-10.16-11.33-21.34-16.99-32.02c-2.93-5.7-6.19-11.24-8.81-17.09
		c-4.77-10.76-10.26-21.19-14.97-31.97c-4.32-11.49-9.39-22.7-13.04-34.43c-1.82-5.13-3.82-10.2-5.39-15.42
		c-2.77-8.55-4.41-17.45-7.65-25.86c-2.02-7.05-2.41-14.48-4.69-21.49c-2.89-15.75-5.21-31.74-4.76-47.8
		C364.8,290.16,363.73,278.16,366.38,266.5z"/>
	<path fill="#881B07" d="M117.05,274.37c4.39,2.08,9.25,2.59,14.01,3.19c-0.38,0.17-1.14,0.5-1.52,0.67
		c-1.08,0.12-2.17,0.18-3.25,0.19c-3.25,6.34-3.74,13.56-4.28,20.54c-0.24,6.34-0.7,12.72-0.14,19.06
		c-3.6-4.02-8.12-8.17-8.27-13.97c-0.15-6.39,0.94-12.74,1.37-19.1C115.86,281.46,116.65,277.95,117.05,274.37z"/>
	<path fill="#554110" d="M353.75,297c0.16-5.09-0.3-10.27,0.84-15.27c0.6,10.16,0.69,20.4-0.02,30.57
		C353.37,307.29,353.91,302.09,353.75,297z"/>
	<path fill="#871B08" d="M112.86,324.39c3.14,1.68,6.65,3.23,10.26,2.16c-1.97,5.96-1.3,12.28-0.88,18.42
		c3.3,46.85,10.8,93.54,24.23,138.6c4.25,13.52,9.27,26.82,15.36,39.62c2.4,5.18,7.21,10.25,5.68,16.38
		c-1.73,6.65-4.57,12.97-6.28,19.63c-2.32,9.1-5.12,18.09-6.62,27.38c-2.42,12.79-3.92,25.73-5.27,38.67
		c-0.66,10.23-0.6,20.5-0.56,30.75c0.19,8.47-0.18,16.97,0.72,25.41c1.26,10.15,1.57,20.41,3.58,30.45
		c5.36,38.78,16.48,76.54,29.73,113.3c11.87,31.07,25.77,61.34,41.35,90.7401c11.92,22.68,24.6,44.98,38.31,66.64
		c5.2,7.55,9.67,15.55,14.87,23.1c6.85,10.13,13.28,20.5699,20.71,30.29c8.15,11.7899,16.09,23.75,25.09,34.9199
		c11.13,15.12,22.62,29.9601,34.48,44.51c5.7,8.1901,12.78,15.26,18.77,23.23c4.97,6.64,10.77,12.6,15.92,19.1
		c4.25,5.38,8.98,10.3601,13.38,15.6101c13.65,16.2899,28.48,31.5299,42.34,47.6399c3.67,4.3201,7.66,8.3601,11.72,12.3201
		c7.71,7.3,13.98,15.98,22.1,22.88c5.88,4.77,10.89,10.48,16.76,15.27c4.94,4.0599,8.54,9.4299,13.14,13.84
		c8.88,8.61,16.22,18.65,23.16,28.86c11.05,15.53,19.75,32.66,26.54,50.4501c3.22,7.48,5.16,15.4199,7.95,23.0599
		c3.91,10.33,6.5099,21.11,10.62,31.38c3.58,8.6,6.01,17.62,9.7,26.17c6.13,17.0299,13.05,33.75,19.4,50.6899
		c7.6,20.3,15.75,40.39,23.28,60.72c3.35,8.1001,6.75,16.1901,9.44,24.55c2.66,8.4,6.3799,16.41,9.14,24.77
		c3.23,10.26,7.11,20.2999,10.6,30.47c4.02,10.77,6.93,21.9401,11.54,32.48c4.47,10.38,8.02,21.13,12.51,31.5
		c6.47,13.25,12.11,27.1,21.02,38.98c1.95,2.9401,5.81,2.8,8.91,3.4301c3.65,13.77,5.9,27.88,8.83,41.8199
		c4.78,23.14,8.25,46.5701,14.65,69.3401c2.12,8.59,5.79,16.6699,9.33,24.74c3.86,8.8199,9.25,17.0699,16.33,23.65
		c5.59,5.2599,13.62,7.8999,21.24,6.6399c5.16-1.0599,9.17-5.1399,11.38-9.76c7.72-15.1699,6.91-32.6799,6.84-49.2
		c-1.6299-25.14-5.94-49.99-9.3-74.92c-1.2-10.9099-2.59-21.7999-4.24-32.6399c-0.8-10.13-3.09-20.05-3.93-30.17
		c-7.7-61.42-16.07-122.76-23.86-184.15c-0.76-3.7-4.22-5.7999-6.81-8.17c6.81,3.66,13.81,7.4801,18.9,13.4701
		c-0.51,0.4299-1.54,1.2999-2.05,1.73c12.18,94.2999,24.43,188.67,36.94,282.95c2.18,10.8401,2.4,21.92,3.36,32.92
		c0.62,13.59-0.15,27.37-3.33,40.64c-1.88,8.47-6.1,16.8099-13.28,21.98c-6.28,5.36-15.33,5.53-22.99,3.72
		c-7.03-1.5399-12.72-6.2899-17.6-11.3199c-9.8799-9.29-15.09-22.13-20.4-34.3c-2.98-10.26-6.87-20.24-9.46-30.6
		c-1.53-9.11-3.9-18.05-4.97-27.23c-2.64-12.2101-4.63-24.54-7.32-36.74c-1.5-8.16-3.74-16.1901-4.43-24.48
		c-5.25-1.5701-8.6-6.0901-11.82-10.2101c-3.59-4.95-6.06-10.59-9.18-15.8199c-3.33-5.63-5.02-12.05-8.44-17.63
		c-2.66-4.4-3.77-9.47-5.82-14.13c-9.05-20.36-15.7-41.64-23.48-62.48c-10.53-30.49-21.39-60.87-33.33-90.8401
		c-2.29-6.9099-5.94-13.2799-7.93-20.2799c-2.06-5.79-4.82-11.3-6.66-17.16c-1.72-5.58-4.79-10.63-6.49-16.21
		c-2.45-8.6901-7.06-16.5701-9.67-25.2101c-2.73-9.37-7.06-18.14-10.04-27.4199c-2.66-6.3-5.02-12.7201-6.77-19.3401
		c-4.9-12.88-8.45-26.24-13.51-39.0599c-3.12-10.0601-6.69-20.0601-11.95-29.22c-4.32-8.54-8.87-16.9801-13.96-25.0801
		c-6.17-7.88-11.7401-16.21-18.02-24.01c-5.69-6.26-11.9-12.0299-17.82-18.08c-6.18-6.52-13.33-11.98-19.57-18.4399
		c-7.22-6.14-12.97-13.7001-19.43-20.5601c-5.79-4.9-9.9-11.37-15.52-16.4399c-4.4-4.29-8.82-8.63-12.41-13.64
		c-2.87-4.1001-6.85-7.2001-9.89-11.14c-2.31-3.01-5.02-5.64-7.73-8.26c-4.52-4.22-7.27-9.9401-11.99-13.97
		c-4.57-3.87-7.03-9.54-11.47-13.5c-5.56-5.2101-9.92-11.49-14.57-17.4601c-4.84-4.64-8.15-10.5299-12.63-15.48
		c-3.98-5.29-8.75-9.92-12.59-15.3099c-6.71-9.49-14.65-18.02-21.4-27.4701c-2.24-3.4299-4.73-6.6599-7.35-9.7899
		c-3.57-4.78-6.67-9.91-10.54-14.4601c-5.22-5.9399-8.74-13.12-13.8-19.1899c-5.36-6.5-9.32-13.97-14.39-20.6801
		c-6-8.14-10.8-17.0699-16.56-25.3699c-2.77-3.67-4.7-7.8701-7.34-11.6201c-4.64-6.3199-7.82-13.54-12.06-20.1299
		c-6.69-10.5-13.08-21.22-18.65-32.3701c-7.68-12.64-13.93-26.06-20.65-39.21c-2.85-5.34-4.65-11.17-7.59-16.46
		c-3-5.33-4.85-11.19-7.46-16.7c-4.28-8.87-7.17-18.3199-11.42-27.2c-4.48-8.9901-6.08-19.04-10.04-28.2401
		c-4.19-9.0099-5.87-18.8799-8.92-28.29c-6.02-18.57-9.14-37.88-12.84-57.01c-2.8-15.89-5.17-31.94-5.37-48.11
		c-2.33-33.85,1.15-67.9,8-101.06c2.62-8.48,3.96-17.32,7.21-25.62c1.36-3.42,2.84-6.79,4.03-10.27
		c-3.54-5.83-6.22-12.12-9.57-18.05c-2.66-4.79-3.51-10.31-5.86-15.24c-2.52-5.28-3.69-11.04-5.47-16.57
		c-8.06-20.75-10.7-43.03-15.88-64.56c-4.37-25.37-7.48-50.95-9.33-76.62C113.47,338.79,112.1,331.6,112.86,324.39z"/>
</g>
</svg>
